<svg xmlns="http://www.w3.org/2000/svg" width="27.158" height="35.988" viewBox="0 0 33.158 41.988">
  <defs>
    <style>
      .cls-1 {
        fill: #01552c;
      }
    </style>
  </defs>
  <path id="ios_share_FILL0_wght400_GRAD0_opsz24" class="cls-1" d="M164.145-878.012a4.169,4.169,0,0,1-2.927-1.121,3.537,3.537,0,0,1-1.218-2.7v-20.994a3.536,3.536,0,0,1,1.218-2.7,4.169,4.169,0,0,1,2.927-1.121h6.217v3.817h-6.217v20.994h24.868v-20.994H182.8v-3.817h6.217a4.169,4.169,0,0,1,2.927,1.121,3.536,3.536,0,0,1,1.218,2.7v20.994a3.537,3.537,0,0,1-1.218,2.7,4.169,4.169,0,0,1-2.927,1.121Zm10.362-13.36V-912.7l-3.316,3.054-2.9-2.72L176.579-920l8.289,7.634-2.9,2.72-3.316-3.054v21.328Z" transform="translate(-160 920)"/>
</svg>
